# xmcd
#
# Track frame offsets: 
#        150
#        21097
#        38337
#        54060
#        72755
#        85997
#        104100
#        120297
#        145482
#        162255
#
# Disc length: 2384 seconds
#
# Revision: 3
# Processed by: cddbd v1.5.2PL0 Copyright (c) Steve Scherf et al.
# Submitted via: ExactAudioCopy v0.95b4
#
DISCID=79094e0a
DTITLE=Rory Gallagher - Top Priority
DYEAR=1979
DGENRE=
TTITLE0=Follow Me
TTITLE1=Philby
TTITLE2=Wayward Child
TTITLE3=Keychain
TTITLE4=At The Depot
TTITLE5=Bad Penny
TTITLE6=Just Hit Town
TTITLE7=Off The Handle
TTITLE8=Public Enemy No 1
TTITLE9=Nothing But The Devil
EXTD=YEAR: 1979
EXTT0=
EXTT1=
EXTT2=
EXTT3=
EXTT4=
EXTT5=
EXTT6=
EXTT7=
EXTT8=
EXTT9=
PLAYORDER=
